# xmcd
#
# Track frame offsets:
#   150
#   16481
#   32661
#   46900
#   65032
#   78691
#   92240
#   105805
#   122154
#   139097
#   158690
#   175397
#   187455
#   202946
#   216162
#   229402
#   245531
#   261290
#   275950
#
# Disc length: 3896 seconds
#
# Revision: 0
# Processed by: cddbd v1.5.2PL0 Copyright (c) Steve Scherf et al.
# Submitted via: uFREEDB ActiveX Control 1.5
#
DISCID=1f0f3613
DTITLE=Gustavo Lima - Do Outro Lado da Moeda
DYEAR=1900
DGENRE=Country
TTITLE0=É Ela Que Eu Amo
TTITLE1=Céu de Carbono
TTITLE2=Fui Fiel
TTITLE3=Do Outro Lado Da Moeda
TTITLE4=Tô Solto Na Night
TTITLE5=Com Você
TTITLE6=Ponto G
TTITLE7=A Cor Da Esperança
TTITLE8=Intenso
TTITLE9=Diz Pra Min
TTITLE10=10 Anos
TTITLE11=Jejum De Amor
TTITLE12=Só Tem Eu
TTITLE13=Garrafa Pet
TTITLE14=Hoje Tem
TTITLE15=Nossa Preferida Sertaneja
TTITLE16=100 Maneiras
TTITLE17=O Que É Que Eu Fiz?
TTITLE18=Fala Pra Min
EXTD=
EXTT0=
EXTT1=
EXTT2=
EXTT3=
EXTT4=
EXTT5=
EXTT6=
EXTT7=
EXTT8=
EXTT9=
EXTT10=
EXTT11=
EXTT12=
EXTT13=
EXTT14=
EXTT15=
EXTT16=
EXTT17=
EXTT18=
PLAYORDER=
